<?xml version="1.0" encoding="UTF-8" standalone="no"?><svg xmlns="http://www.w3.org/2000/svg" xmlns:xlink="http://www.w3.org/1999/xlink" clip-rule="evenodd" stroke-miterlimit="4.00" viewBox="0 0 195 20"><desc>SVG generated by Keynote</desc><defs></defs><g transform="matrix(1.00, 0.00, -0.00, -1.00, 0.0, 20.0)"><text xml:space="preserve" font-family="Helvetica" font-size="17.2" fill="#F8F8F8" transform="matrix(1.00, 0.00, -0.00, -1.00, 73.0, 5.0)">t</text><text xml:space="preserve" font-family="Helvetica" font-size="17.2" fill="#F8F8F8" transform="matrix(1.00, 0.00, -0.00, -1.00, 77.8, 5.0)">s</text><text xml:space="preserve" font-family="Helvetica" font-size="17.2" fill="#F8F8F8" transform="matrix(1.00, 0.00, -0.00, -1.00, 86.4, 5.0)"> </text><text xml:space="preserve" font-family="Helvetica" font-size="17.2" fill="#F8F8F8" transform="matrix(1.00, 0.00, -0.00, -1.00, 91.2, 5.0)">:</text><text xml:space="preserve" font-family="Helvetica" font-size="17.2" fill="#F8F8F8" transform="matrix(1.00, 0.00, -0.00, -1.00, 95.9, 5.0)">=</text><text xml:space="preserve" font-family="Helvetica" font-size="17.2" fill="#F8F8F8" transform="matrix(1.00, 0.00, -0.00, -1.00, 106.0, 5.0)"> </text><text xml:space="preserve" font-family="Helvetica" font-size="17.2" fill="#F8F8F8" transform="matrix(1.00, 0.00, -0.00, -1.00, 110.7, 5.0)">t</text><text xml:space="preserve" font-family="Helvetica" font-size="17.2" fill="#F8F8F8" transform="matrix(1.00, 0.00, -0.00, -1.00, 115.5, 5.0)">i</text><text xml:space="preserve" font-family="Helvetica" font-size="17.2" fill="#F8F8F8" transform="matrix(1.00, 0.00, -0.00, -1.00, 119.3, 5.0)">m</text><text xml:space="preserve" font-family="Helvetica" font-size="17.2" fill="#F8F8F8" transform="matrix(1.00, 0.00, -0.00, -1.00, 133.7, 5.0)">e</text><text xml:space="preserve" font-family="Helvetica" font-size="17.2" fill="#F8F8F8" transform="matrix(1.00, 0.00, -0.00, -1.00, 143.2, 5.0)">.</text><text xml:space="preserve" font-family="Helvetica" font-size="17.2" fill="#F8F8F8" transform="matrix(1.00, 0.00, -0.00, -1.00, 148.0, 5.0)">N</text><text xml:space="preserve" font-family="Helvetica" font-size="17.2" fill="#F8F8F8" transform="matrix(1.00, 0.00, -0.00, -1.00, 160.4, 5.0)">o</text><text xml:space="preserve" font-family="Helvetica" font-size="17.2" fill="#F8F8F8" transform="matrix(1.00, 0.00, -0.00, -1.00, 170.0, 5.0)">w</text><text xml:space="preserve" font-family="Helvetica" font-size="17.2" fill="#F8F8F8" transform="matrix(1.00, 0.00, -0.00, -1.00, 182.4, 5.0)">(</text><text xml:space="preserve" font-family="Helvetica" font-size="17.2" fill="#F8F8F8" transform="matrix(1.00, 0.00, -0.00, -1.00, 188.2, 5.0)">)</text></g></svg>