<?xml version="1.0" encoding="UTF-8" standalone="no"?><svg xmlns="http://www.w3.org/2000/svg" xmlns:xlink="http://www.w3.org/1999/xlink" clip-rule="evenodd" stroke-miterlimit="4.00" viewBox="0 0 342 20"><desc>SVG generated by Keynote</desc><defs></defs><g transform="matrix(1.00, 0.00, -0.00, -1.00, 0.0, 20.0)"><text xml:space="preserve" font-family="Helvetica" font-size="17.2" fill="#F8F8F8" transform="matrix(1.00, 0.00, -0.00, -1.00, 217.0, 6.0)">d</text><text xml:space="preserve" font-family="Helvetica" font-size="17.2" fill="#F8F8F8" transform="matrix(1.00, 0.00, -0.00, -1.00, 226.6, 6.0)">e</text><text xml:space="preserve" font-family="Helvetica" font-size="17.2" fill="#F8F8F8" transform="matrix(1.00, 0.00, -0.00, -1.00, 236.1, 6.0)">f</text><text xml:space="preserve" font-family="Helvetica" font-size="17.2" fill="#F8F8F8" transform="matrix(1.00, 0.00, -0.00, -1.00, 240.9, 6.0)">e</text><text xml:space="preserve" font-family="Helvetica" font-size="17.2" fill="#F8F8F8" transform="matrix(1.00, 0.00, -0.00, -1.00, 250.5, 6.0)">r</text><text xml:space="preserve" font-family="Helvetica" font-size="17.2" fill="#F8F8F8" transform="matrix(1.00, 0.00, -0.00, -1.00, 256.2, 6.0)"> </text><text xml:space="preserve" font-family="Helvetica" font-size="17.2" fill="#F8F8F8" transform="matrix(1.00, 0.00, -0.00, -1.00, 261.0, 6.0)">w</text><text xml:space="preserve" font-family="Helvetica" font-size="17.2" fill="#F8F8F8" transform="matrix(1.00, 0.00, -0.00, -1.00, 273.4, 6.0)">g</text><text xml:space="preserve" font-family="Helvetica" font-size="17.2" fill="#F8F8F8" transform="matrix(1.00, 0.00, -0.00, -1.00, 283.0, 6.0)">.</text><text xml:space="preserve" font-family="Helvetica" font-size="17.2" fill="#F8F8F8" transform="matrix(1.00, 0.00, -0.00, -1.00, 287.8, 6.0)">D</text><text xml:space="preserve" font-family="Helvetica" font-size="17.2" fill="#F8F8F8" transform="matrix(1.00, 0.00, -0.00, -1.00, 300.2, 6.0)">o</text><text xml:space="preserve" font-family="Helvetica" font-size="17.2" fill="#F8F8F8" transform="matrix(1.00, 0.00, -0.00, -1.00, 309.7, 6.0)">n</text><text xml:space="preserve" font-family="Helvetica" font-size="17.2" fill="#F8F8F8" transform="matrix(1.00, 0.00, -0.00, -1.00, 319.3, 6.0)">e</text><text xml:space="preserve" font-family="Helvetica" font-size="17.2" fill="#F8F8F8" transform="matrix(1.00, 0.00, -0.00, -1.00, 328.9, 6.0)">(</text><text xml:space="preserve" font-family="Helvetica" font-size="17.2" fill="#F8F8F8" transform="matrix(1.00, 0.00, -0.00, -1.00, 334.6, 6.0)">)</text></g></svg>