<?xml version="1.0" encoding="UTF-8" standalone="no"?><svg xmlns="http://www.w3.org/2000/svg" xmlns:xlink="http://www.w3.org/1999/xlink" clip-rule="evenodd" stroke-miterlimit="4.00" viewBox="0 0 100 20"><desc>SVG generated by Keynote</desc><defs></defs><g transform="matrix(1.00, 0.00, -0.00, -1.00, 0.0, 20.0)"><text xml:space="preserve" font-family="Helvetica" font-size="17.2" fill="#F8F8F8" transform="matrix(1.00, 0.00, -0.00, -1.00, 1.0, 6.0)">f</text><text xml:space="preserve" font-family="Helvetica" font-size="17.2" fill="#F8F8F8" transform="matrix(1.00, 0.00, -0.00, -1.00, 5.8, 6.0)">u</text><text xml:space="preserve" font-family="Helvetica" font-size="17.2" fill="#F8F8F8" transform="matrix(1.00, 0.00, -0.00, -1.00, 15.3, 6.0)">n</text><text xml:space="preserve" font-family="Helvetica" font-size="17.2" fill="#F8F8F8" transform="matrix(1.00, 0.00, -0.00, -1.00, 24.9, 6.0)">c</text><text xml:space="preserve" font-family="Helvetica" font-size="17.2" fill="#F8F8F8" transform="matrix(1.00, 0.00, -0.00, -1.00, 33.5, 6.0)"> </text><text xml:space="preserve" font-family="Helvetica" font-size="17.2" fill="#F8F8F8" transform="matrix(1.00, 0.00, -0.00, -1.00, 38.3, 6.0)">m</text><text xml:space="preserve" font-family="Helvetica" font-size="17.2" fill="#F8F8F8" transform="matrix(1.00, 0.00, -0.00, -1.00, 52.6, 6.0)">a</text><text xml:space="preserve" font-family="Helvetica" font-size="17.2" fill="#F8F8F8" transform="matrix(1.00, 0.00, -0.00, -1.00, 62.2, 6.0)">i</text><text xml:space="preserve" font-family="Helvetica" font-size="17.2" fill="#F8F8F8" transform="matrix(1.00, 0.00, -0.00, -1.00, 66.0, 6.0)">n</text><text xml:space="preserve" font-family="Helvetica" font-size="17.2" fill="#F8F8F8" transform="matrix(1.00, 0.00, -0.00, -1.00, 75.6, 6.0)">(</text><text xml:space="preserve" font-family="Helvetica" font-size="17.2" fill="#F8F8F8" transform="matrix(1.00, 0.00, -0.00, -1.00, 81.3, 6.0)">)</text><text xml:space="preserve" font-family="Helvetica" font-size="17.2" fill="#F8F8F8" transform="matrix(1.00, 0.00, -0.00, -1.00, 87.0, 6.0)"> </text><text xml:space="preserve" font-family="Helvetica" font-size="17.2" fill="#F8F8F8" transform="matrix(1.00, 0.00, -0.00, -1.00, 91.8, 6.0)">{</text></g></svg>