<?xml version="1.0" encoding="UTF-8" standalone="no"?><svg xmlns="http://www.w3.org/2000/svg" xmlns:xlink="http://www.w3.org/1999/xlink" clip-rule="evenodd" stroke-miterlimit="4.00" viewBox="0 0 135 17"><desc>SVG generated by Keynote</desc><defs></defs><g transform="matrix(1.00, 0.00, -0.00, -1.00, 0.0, 17.0)"><text xml:space="preserve" font-family="Helvetica" font-size="17.2" fill="#F8F8F8" transform="matrix(1.00, 0.00, -0.00, -1.00, 1.0, 3.0)">v</text><text xml:space="preserve" font-family="Helvetica" font-size="17.2" fill="#F8F8F8" transform="matrix(1.00, 0.00, -0.00, -1.00, 9.6, 3.0)">a</text><text xml:space="preserve" font-family="Helvetica" font-size="17.2" fill="#F8F8F8" transform="matrix(1.00, 0.00, -0.00, -1.00, 19.2, 3.0)">r</text><text xml:space="preserve" font-family="Helvetica" font-size="17.2" fill="#F8F8F8" transform="matrix(1.00, 0.00, -0.00, -1.00, 24.9, 3.0)"> </text><text xml:space="preserve" font-family="Helvetica" font-size="17.2" fill="#F8F8F8" transform="matrix(1.00, 0.00, -0.00, -1.00, 29.7, 3.0)">t</text><text xml:space="preserve" font-family="Helvetica" font-size="17.2" fill="#F8F8F8" transform="matrix(1.00, 0.00, -0.00, -1.00, 34.4, 3.0)">o</text><text xml:space="preserve" font-family="Helvetica" font-size="17.2" fill="#F8F8F8" transform="matrix(1.00, 0.00, -0.00, -1.00, 44.0, 3.0)">t</text><text xml:space="preserve" font-family="Helvetica" font-size="17.2" fill="#F8F8F8" transform="matrix(1.00, 0.00, -0.00, -1.00, 48.8, 3.0)">a</text><text xml:space="preserve" font-family="Helvetica" font-size="17.2" fill="#F8F8F8" transform="matrix(1.00, 0.00, -0.00, -1.00, 58.4, 3.0)">l</text><text xml:space="preserve" font-family="Helvetica" font-size="17.2" fill="#F8F8F8" transform="matrix(1.00, 0.00, -0.00, -1.00, 62.2, 3.0)"> </text><text xml:space="preserve" font-family="Helvetica" font-size="17.2" fill="#F8F8F8" transform="matrix(1.00, 0.00, -0.00, -1.00, 67.0, 3.0)">i</text><text xml:space="preserve" font-family="Helvetica" font-size="17.2" fill="#F8F8F8" transform="matrix(1.00, 0.00, -0.00, -1.00, 70.8, 3.0)">n</text><text xml:space="preserve" font-family="Helvetica" font-size="17.2" fill="#F8F8F8" transform="matrix(1.00, 0.00, -0.00, -1.00, 80.4, 3.0)">t</text><text xml:space="preserve" font-family="Helvetica" font-size="17.2" fill="#F8F8F8" transform="matrix(1.00, 0.00, -0.00, -1.00, 85.1, 3.0)">3</text><text xml:space="preserve" font-family="Helvetica" font-size="17.2" fill="#F8F8F8" transform="matrix(1.00, 0.00, -0.00, -1.00, 94.7, 3.0)">2</text><text xml:space="preserve" font-family="Helvetica" font-size="17.2" fill="#F8F8F8" transform="matrix(1.00, 0.00, -0.00, -1.00, 104.3, 3.0)"> </text><text xml:space="preserve" font-family="Helvetica" font-size="17.2" fill="#F8F8F8" transform="matrix(1.00, 0.00, -0.00, -1.00, 109.0, 3.0)">=</text><text xml:space="preserve" font-family="Helvetica" font-size="17.2" fill="#F8F8F8" transform="matrix(1.00, 0.00, -0.00, -1.00, 119.1, 3.0)"> </text><text xml:space="preserve" font-family="Helvetica" font-size="17.2" fill="#F8F8F8" transform="matrix(1.00, 0.00, -0.00, -1.00, 123.9, 3.0)">0</text></g></svg>