<?xml version="1.0" encoding="UTF-8" standalone="no"?><svg xmlns="http://www.w3.org/2000/svg" xmlns:xlink="http://www.w3.org/1999/xlink" clip-rule="evenodd" stroke-miterlimit="4.00" viewBox="0 0 226 21"><desc>SVG generated by Keynote</desc><defs></defs><g transform="matrix(1.00, 0.00, -0.00, -1.00, 0.0, 21.0)"><text xml:space="preserve" font-family="Helvetica" font-size="17.2" fill="#F8F8F8" transform="matrix(1.00, 0.00, -0.00, -1.00, 145.0, 6.0)">g</text><text xml:space="preserve" font-family="Helvetica" font-size="17.2" fill="#F8F8F8" transform="matrix(1.00, 0.00, -0.00, -1.00, 154.6, 6.0)">o</text><text xml:space="preserve" font-family="Helvetica" font-size="17.2" fill="#F8F8F8" transform="matrix(1.00, 0.00, -0.00, -1.00, 164.1, 6.0)"> </text><text xml:space="preserve" font-family="Helvetica" font-size="17.2" fill="#F8F8F8" transform="matrix(1.00, 0.00, -0.00, -1.00, 168.9, 6.0)">f</text><text xml:space="preserve" font-family="Helvetica" font-size="17.2" fill="#F8F8F8" transform="matrix(1.00, 0.00, -0.00, -1.00, 173.7, 6.0)">u</text><text xml:space="preserve" font-family="Helvetica" font-size="17.2" fill="#F8F8F8" transform="matrix(1.00, 0.00, -0.00, -1.00, 183.3, 6.0)">n</text><text xml:space="preserve" font-family="Helvetica" font-size="17.2" fill="#F8F8F8" transform="matrix(1.00, 0.00, -0.00, -1.00, 192.8, 6.0)">c</text><text xml:space="preserve" font-family="Helvetica" font-size="17.2" fill="#F8F8F8" transform="matrix(1.00, 0.00, -0.00, -1.00, 201.4, 6.0)">(</text><text xml:space="preserve" font-family="Helvetica" font-size="17.2" fill="#F8F8F8" transform="matrix(1.00, 0.00, -0.00, -1.00, 207.2, 6.0)">)</text><text xml:space="preserve" font-family="Helvetica" font-size="17.2" fill="#F8F8F8" transform="matrix(1.00, 0.00, -0.00, -1.00, 212.9, 6.0)"> </text><text xml:space="preserve" font-family="Helvetica" font-size="17.2" fill="#F8F8F8" transform="matrix(1.00, 0.00, -0.00, -1.00, 217.7, 6.0)">{</text></g></svg>