<?xml version="1.0" encoding="UTF-8" standalone="no"?><svg xmlns="http://www.w3.org/2000/svg" xmlns:xlink="http://www.w3.org/1999/xlink" clip-rule="evenodd" stroke-miterlimit="4.00" viewBox="0 0 131 20"><desc>SVG generated by Keynote</desc><defs></defs><g transform="matrix(1.00, 0.00, -0.00, -1.00, 0.0, 20.0)"><text xml:space="preserve" font-family="Helvetica" font-size="17.1" fill="#FAFCFF" transform="matrix(1.00, 0.00, -0.00, -1.00, 1.0, 6.0)">6</text><text xml:space="preserve" font-family="Helvetica" font-size="17.1" fill="#FAFCFF" transform="matrix(1.00, 0.00, -0.00, -1.00, 10.5, 6.0)">.</text><text xml:space="preserve" font-family="Helvetica" font-size="17.1" fill="#FAFCFF" transform="matrix(1.00, 0.00, -0.00, -1.00, 15.3, 6.0)"> </text><text xml:space="preserve" font-family="Helvetica" font-size="17.1" fill="#FAFCFF" transform="matrix(1.00, 0.00, -0.00, -1.00, 20.0, 6.0)">g</text><text xml:space="preserve" font-family="Helvetica" font-size="17.1" fill="#FAFCFF" transform="matrix(1.00, 0.00, -0.00, -1.00, 29.5, 6.0)">o</text><text xml:space="preserve" font-family="Helvetica" font-size="17.1" fill="#FAFCFF" transform="matrix(1.00, 0.00, -0.00, -1.00, 39.0, 6.0)"> </text><text xml:space="preserve" font-family="Helvetica" font-size="17.1" fill="#FAFCFF" transform="matrix(1.00, 0.00, -0.00, -1.00, 43.8, 6.0)">f</text><text xml:space="preserve" font-family="Helvetica" font-size="17.1" fill="#FAFCFF" transform="matrix(1.00, 0.00, -0.00, -1.00, 48.5, 6.0)">u</text><text xml:space="preserve" font-family="Helvetica" font-size="17.1" fill="#FAFCFF" transform="matrix(1.00, 0.00, -0.00, -1.00, 58.0, 6.0)">n</text><text xml:space="preserve" font-family="Helvetica" font-size="17.1" fill="#FAFCFF" transform="matrix(1.00, 0.00, -0.00, -1.00, 67.6, 6.0)">c</text><text xml:space="preserve" font-family="Helvetica" font-size="17.1" fill="#FAFCFF" transform="matrix(1.00, 0.00, -0.00, -1.00, 76.1, 6.0)">(</text><text xml:space="preserve" font-family="Helvetica" font-size="17.1" fill="#FAFCFF" transform="matrix(1.00, 0.00, -0.00, -1.00, 81.8, 6.0)">.</text><text xml:space="preserve" font-family="Helvetica" font-size="17.1" fill="#FAFCFF" transform="matrix(1.00, 0.00, -0.00, -1.00, 86.6, 6.0)">.</text><text xml:space="preserve" font-family="Helvetica" font-size="17.1" fill="#FAFCFF" transform="matrix(1.00, 0.00, -0.00, -1.00, 91.3, 6.0)">)</text><text xml:space="preserve" font-family="Helvetica" font-size="17.1" fill="#FAFCFF" transform="matrix(1.00, 0.00, -0.00, -1.00, 97.0, 6.0)"> </text><text xml:space="preserve" font-family="Helvetica" font-size="17.1" fill="#FAFCFF" transform="matrix(1.00, 0.00, -0.00, -1.00, 101.7, 6.0)">{</text><text xml:space="preserve" font-family="Helvetica" font-size="17.1" fill="#FAFCFF" transform="matrix(1.00, 0.00, -0.00, -1.00, 107.5, 6.0)">}</text><text xml:space="preserve" font-family="Helvetica" font-size="17.1" fill="#FAFCFF" transform="matrix(1.00, 0.00, -0.00, -1.00, 113.2, 6.0)"> </text><text xml:space="preserve" font-family="Helvetica" font-size="17.1" fill="#FAFCFF" transform="matrix(1.00, 0.00, -0.00, -1.00, 117.9, 6.0)">(</text><text xml:space="preserve" font-family="Helvetica" font-size="17.1" fill="#FAFCFF" transform="matrix(1.00, 0.00, -0.00, -1.00, 123.6, 6.0)">)</text></g></svg>