<?xml version="1.0" encoding="UTF-8" standalone="no"?><svg xmlns="http://www.w3.org/2000/svg" xmlns:xlink="http://www.w3.org/1999/xlink" clip-rule="evenodd" stroke-miterlimit="4.00" viewBox="0 0 197 20"><desc>SVG generated by Keynote</desc><defs></defs><g transform="matrix(1.00, 0.00, -0.00, -1.00, 0.0, 20.0)"><text xml:space="preserve" font-family="Helvetica" font-size="17.1" fill="#FAFCFF" transform="matrix(1.00, 0.00, -0.00, -1.00, 1.0, 5.0)">6</text><text xml:space="preserve" font-family="Helvetica" font-size="17.1" fill="#FAFCFF" transform="matrix(1.00, 0.00, -0.00, -1.00, 10.5, 5.0)">.</text><text xml:space="preserve" font-family="Helvetica" font-size="17.1" fill="#FAFCFF" transform="matrix(1.00, 0.00, -0.00, -1.00, 15.3, 5.0)"> </text><text xml:space="preserve" font-family="Helvetica" font-size="17.1" fill="#FAFCFF" transform="matrix(1.00, 0.00, -0.00, -1.00, 20.0, 5.0)">n</text><text xml:space="preserve" font-family="Helvetica" font-size="17.1" fill="#FAFCFF" transform="matrix(1.00, 0.00, -0.00, -1.00, 29.5, 5.0)">e</text><text xml:space="preserve" font-family="Helvetica" font-size="17.1" fill="#FAFCFF" transform="matrix(1.00, 0.00, -0.00, -1.00, 39.0, 5.0)">w</text><text xml:space="preserve" font-family="Helvetica" font-size="17.1" fill="#FAFCFF" transform="matrix(1.00, 0.00, -0.00, -1.00, 51.4, 5.0)"> </text><text xml:space="preserve" font-family="Helvetica" font-size="17.1" fill="#FAFCFF" transform="matrix(1.00, 0.00, -0.00, -1.00, 55.8, 5.0)">T</text><text xml:space="preserve" font-family="Helvetica" font-size="17.1" fill="#FAFCFF" transform="matrix(1.00, 0.00, -0.00, -1.00, 66.3, 5.0)">h</text><text xml:space="preserve" font-family="Helvetica" font-size="17.1" fill="#FAFCFF" transform="matrix(1.00, 0.00, -0.00, -1.00, 75.8, 5.0)">r</text><text xml:space="preserve" font-family="Helvetica" font-size="17.1" fill="#FAFCFF" transform="matrix(1.00, 0.00, -0.00, -1.00, 81.5, 5.0)">e</text><text xml:space="preserve" font-family="Helvetica" font-size="17.1" fill="#FAFCFF" transform="matrix(1.00, 0.00, -0.00, -1.00, 91.0, 5.0)">a</text><text xml:space="preserve" font-family="Helvetica" font-size="17.1" fill="#FAFCFF" transform="matrix(1.00, 0.00, -0.00, -1.00, 100.5, 5.0)">d</text><text xml:space="preserve" font-family="Helvetica" font-size="17.1" fill="#FAFCFF" transform="matrix(1.00, 0.00, -0.00, -1.00, 110.0, 5.0)">(</text><text xml:space="preserve" font-family="Helvetica" font-size="17.1" fill="#FAFCFF" transform="matrix(1.00, 0.00, -0.00, -1.00, 115.7, 5.0)">.</text><text xml:space="preserve" font-family="Helvetica" font-size="17.1" fill="#FAFCFF" transform="matrix(1.00, 0.00, -0.00, -1.00, 120.5, 5.0)">.</text><text xml:space="preserve" font-family="Helvetica" font-size="17.1" fill="#FAFCFF" transform="matrix(1.00, 0.00, -0.00, -1.00, 125.2, 5.0)">.</text><text xml:space="preserve" font-family="Helvetica" font-size="17.1" fill="#FAFCFF" transform="matrix(1.00, 0.00, -0.00, -1.00, 130.0, 5.0)">.</text><text xml:space="preserve" font-family="Helvetica" font-size="17.1" fill="#FAFCFF" transform="matrix(1.00, 0.00, -0.00, -1.00, 134.7, 5.0)">)</text><text xml:space="preserve" font-family="Helvetica" font-size="17.1" fill="#FAFCFF" transform="matrix(1.00, 0.00, -0.00, -1.00, 140.4, 5.0)">.</text><text xml:space="preserve" font-family="Helvetica" font-size="17.1" fill="#FAFCFF" transform="matrix(1.00, 0.00, -0.00, -1.00, 145.2, 5.0)">s</text><text xml:space="preserve" font-family="Helvetica" font-size="17.1" fill="#FAFCFF" transform="matrix(1.00, 0.00, -0.00, -1.00, 153.7, 5.0)">t</text><text xml:space="preserve" font-family="Helvetica" font-size="17.1" fill="#FAFCFF" transform="matrix(1.00, 0.00, -0.00, -1.00, 158.5, 5.0)">a</text><text xml:space="preserve" font-family="Helvetica" font-size="17.1" fill="#FAFCFF" transform="matrix(1.00, 0.00, -0.00, -1.00, 168.0, 5.0)">r</text><text xml:space="preserve" font-family="Helvetica" font-size="17.1" fill="#FAFCFF" transform="matrix(1.00, 0.00, -0.00, -1.00, 173.7, 5.0)">t</text><text xml:space="preserve" font-family="Helvetica" font-size="17.1" fill="#FAFCFF" transform="matrix(1.00, 0.00, -0.00, -1.00, 178.4, 5.0)">(</text><text xml:space="preserve" font-family="Helvetica" font-size="17.1" fill="#FAFCFF" transform="matrix(1.00, 0.00, -0.00, -1.00, 184.1, 5.0)">)</text><text xml:space="preserve" font-family="Helvetica" font-size="17.1" fill="#FAFCFF" transform="matrix(1.00, 0.00, -0.00, -1.00, 189.8, 5.0)">;</text></g></svg>